<svg xmlns="http://www.w3.org/2000/svg" width="720" height="520" viewBox="0 0 720 520" fill="none"><defs><linearGradient id="sky" x1="580" y1="15" x2="190" y2="470" gradientUnits="userSpaceOnUse"><stop stop-color="#DDECE1"/><stop offset="1" stop-color="#F0F5ED"/></linearGradient><linearGradient id="body" x1="478" y1="212" x2="450" y2="389" gradientUnits="userSpaceOnUse"><stop stop-color="#168354"/><stop offset="1" stop-color="#064B2B"/></linearGradient><linearGradient id="car" x1="238" y1="187" x2="250" y2="312" gradientUnits="userSpaceOnUse"><stop stop-color="#FFFFFF"/><stop offset="1" stop-color="#B9C9C3"/></linearGradient><linearGradient id="glass" x1="280" y1="187" x2="320" y2="254" gradientUnits="userSpaceOnUse"><stop stop-color="#78968D"/><stop offset="1" stop-color="#233F36"/></linearGradient><filter id="shadow"><feGaussianBlur stdDeviation="10"/></filter><pattern id="dots" width="18" height="18" patternUnits="userSpaceOnUse"><circle cx="2" cy="2" r="1.1" fill="#AEC5B4" opacity=".45"/></pattern></defs><path d="M134 108C227 5 428-17 571 78C698 162 724 305 628 412C532 519 292 515 149 408C34 322 40 212 134 108Z" fill="url(#sky)"/><path d="M476 27h150v144H476z" fill="url(#dots)"/><g opacity=".65" fill="#CCDECF"><path d="M91 241v-94l30-12 32 12v94z"/><path d="M156 242V103l30-15 34 15v139z"/><path d="M225 238V164l42-15 35 15v74z"/><path d="M549 249V135l35-14 30 14v114z"/><path d="M616 256V176l22-10 26 10v80z"/></g><g stroke="#F3F7F1" stroke-width="5" opacity=".8"><path d="M169 119v16m0 13v16m0 13v16m20-78v20m0 13v16m0 13v16m-83-32v17m23-17v17m438-28v16m0 12v16m21-44v16m0 12v16"/></g><path d="m43 338 371-139 276 131-381 171L43 378z" fill="#C0D4C4"/><path d="m44 342 370-135 276 126-381 160z" fill="#DDE6DC"/><path d="m74 354 342-123 232 104-342 143z" fill="#9EAFA3"/><path d="m89 349 226 107 316-129" stroke="#DFE7DB" stroke-width="3"/><path d="m85 363 228 106 342-139" stroke="#F4F6EB" stroke-width="3" stroke-dasharray="25 18"/><ellipse cx="370" cy="387" rx="220" ry="39" fill="#385A42" opacity=".21" filter="url(#shadow)"/><path d="m167 311 264-94 179 104-254 113-194-100z" fill="#20392F"/><path d="m153 302 266-93 28 17-267 102z" fill="#879A86"/><path d="m154 302 266-93v13l-265 97z" fill="#C3CFB8"/><path d="m170 325 267-98 164 91-264 112z" fill="#738777"/><path d="m172 325 166 95 261-108" stroke="#B5C6AF" stroke-width="5"/><path d="m169 325 1 15 166 95 260-110v-13L338 420z" fill="#344D3E"/><path d="m193 337 113 62" stroke="#F2B644" stroke-width="5" stroke-dasharray="14 10"/><path d="m437 255 75-29 62 31 48 75v37l-82 40-104-60z" fill="url(#body)"/><path d="m438 254 70-28 51 26-72 30z" fill="#2B9865"/><path d="m487 282 72-30 41 61-70 32z" fill="#365A4C"/><path d="m497 284 57-23 32 49-56 25z" fill="url(#glass)"/><path d="m448 264 29 17 34 52-62-35z" fill="#294D3E"/><path d="m454 275 21 12 22 35-42-24z" fill="#AAC2AC" opacity=".7"/><path d="m529 345 72-31 20 19v35l-80 37-10-34z" fill="#0A5832"/><path d="m543 356 24-11 1 12-24 11z" fill="#F4F3D9"/><path d="m593 333 19-8 3 13-20 9z" fill="#F4F3D9"/><path d="m568 360 24-11v17l-24 11z" fill="#173D2C"/><path d="m542 388 75-34v12l-74 34z" fill="#9AADA1"/><path d="m575 376 22-10v8l-22 10z" fill="#ECF0E3"/><path d="m476 312 40 23v40l-40-23z" stroke="#07592F" stroke-width="2"/><path d="m490 333 10 5" stroke="#B0C9B5" stroke-width="3" stroke-linecap="round"/><path d="m444 327 17 10" stroke="#FFD163" stroke-width="3"/><path d="m491 230 25-10 18 9-25 10z" fill="#FFB400"/><path d="m490 230 19 9v10l-19-10z" fill="#D99605"/><path d="m509 239 25-10v10l-25 10z" fill="#FFC332"/><g><ellipse cx="240" cy="365" rx="23" ry="32" transform="rotate(-24 240 365)" fill="#233B31"/><ellipse cx="238" cy="366" rx="17" ry="26" transform="rotate(-24 238 366)" fill="#14281F"/><ellipse cx="238" cy="366" rx="10" ry="16" transform="rotate(-24 238 366)" fill="#85988A"/><ellipse cx="238" cy="366" rx="5" ry="8" transform="rotate(-24 238 366)" fill="#C0CCBD"/><ellipse cx="480" cy="390" rx="23" ry="32" transform="rotate(-24 480 390)" fill="#233B31"/><ellipse cx="477" cy="391" rx="17" ry="26" transform="rotate(-24 477 391)" fill="#14281F"/><ellipse cx="477" cy="391" rx="10" ry="16" transform="rotate(-24 477 391)" fill="#85988A"/><ellipse cx="477" cy="391" rx="5" ry="8" transform="rotate(-24 477 391)" fill="#C0CCBD"/></g><path d="m207 257 37-55 88-33 65 33 47 66-1 33-127 52-114-62z" fill="url(#car)"/><path d="m245 202 86-33 65 33-90 37z" fill="#EFF4EF"/><path d="m311 238 81-34 36 50-87 37z" fill="url(#glass)"/><path d="m241 212 60 32 26 45-99-54z" fill="#476257"/><path d="m246 220 22 12 16 28-46-24z" fill="#789287"/><path d="m276 237 20 11 20 29-25-13z" fill="#9BAC9F"/><path d="m343 293 88-36 15 15-3 29-126 52v-35z" fill="#CDD8CE"/><path d="m212 266 107 61v26l-117-62 2-22z" fill="#DCE3D9"/><path d="m359 304 30-12 1 12-30 12z" fill="#354E42"/><path d="m405 285 31-12 1 12-31 12z" fill="#FFFCE7"/><path d="m327 316 22-9 1 12-20 8z" fill="#FFFCE7"/><path d="m342 335 81-34" stroke="#819587" stroke-width="5"/><path d="m360 331 19-8v6l-19 8z" fill="#F8FAF2"/><path d="m253 256 1 58m30-40 1 58" stroke="#AFBFB0" stroke-width="1.5"/><path d="m263 274 9 5m22 7 8 5" stroke="#6C8475" stroke-width="3" stroke-linecap="round"/><ellipse cx="234" cy="304" rx="17" ry="24" transform="rotate(-25 234 304)" fill="#23372B"/><ellipse cx="231" cy="305" rx="10" ry="16" transform="rotate(-25 231 305)" fill="#879788"/><ellipse cx="231" cy="305" rx="4" ry="7" transform="rotate(-25 231 305)" fill="#D5DDD1"/><ellipse cx="307" cy="345" rx="17" ry="24" transform="rotate(-25 307 345)" fill="#23372B"/><ellipse cx="304" cy="346" rx="10" ry="16" transform="rotate(-25 304 346)" fill="#879788"/><ellipse cx="304" cy="346" rx="4" ry="7" transform="rotate(-25 304 346)" fill="#D5DDD1"/><path d="m229 208 86-34m-4 65 77-30" stroke="#789381" stroke-width="4" stroke-linecap="round"/><g><path d="M606 283v-74" stroke="#7C8F73" stroke-width="6"/><path d="M606 257c-36-2-48-28-38-49 4-9 10-14 13-29 4-22 37-28 47-3 4 13 18 20 17 40 0 23-16 39-39 41Z" fill="#7FA47C"/><path d="M606 255v-59m0 38-16-18m16 5 14-20" stroke="#58825A" stroke-width="3" stroke-linecap="round"/></g><g><path d="M104 304v-59" stroke="#7C8F73" stroke-width="5"/><path d="M104 277c-27 0-34-20-29-35 4-11 6-15 9-26 6-23 30-23 39-3 5 14 17 22 12 38-3 17-15 25-31 26Z" fill="#9EBC8F"/><path d="M104 278v-46m0 24-12-14" stroke="#6F945F" stroke-width="3"/></g><path d="M399 93c18-28 39-34 60-18 21 15 32 33 55 24" stroke="#88AF90" stroke-width="2" stroke-dasharray="6 7"/><circle cx="398" cy="93" r="6" fill="#0B6B3A"/><path d="M517 100c-10-13-20-23-20-34a20 20 0 1 1 40 0c0 11-10 21-20 34Z" fill="#0B6B3A"/><circle cx="517" cy="65" r="7" fill="white"/><g transform="translate(457 334) rotate(28)"><path d="M0 0h15v18H0z" fill="#E7F1E5" opacity=".95"/><path d="m3 13 4-9h3l3 9h-3l-1-2H7l-1 2Z" fill="#0B6B3A"/></g></svg>